#!OML:ASF X:\für Bonn\!DataBase\2005_08_10_Bjorn_Final\c3d\bjorn.ASF
:FULLY-SPECIFIED
:DEGREES
62
root 0.421474 13.4802 3.68475 -182.942 -2.22543 179.583
lowerback 20.685 1.72063 2.40426
upperback 10.9588 0.356536 -1.37471
thorax 0.383671 -0.631274 -2.90053
lowerneck -20.3813 -1.20396 2.92716
upperneck 1.72093 -2.84153 0.216719
head 3.66965 -1.57715 -0.656993
rclavicle -1.11319e-014 7.95139e-016
rhumerus 83.7608 -3.43377 -76.4254
rradius 7.22933
rwrist 49.2516
rhand -12.3959 8.56532
rfingers 7.12502
rthumb 13.6754 -20.9654
lclavicle -1.11319e-014 7.95139e-016
lhumerus 85.7085 -7.05298 49.2116
lradius 13.4437
lwrist -35.7115
lhand -21.9212 -11.5532
lfingers 7.12502
lthumb 4.48485 18.3793
rfemur -54.9658 -13.4136 12.4316
rtibia 109.319
rfoot -31.6694 27.3909
rtoes -24.1384
lfemur -54.833 9.72267 -15.1543
ltibia 111.667
lfoot -27.9534 -17.5814
ltoes -28.3422
63
root 0.424262 13.2496 3.6959 -183.218 -2.2475 179.499
lowerback 21.2791 1.74216 2.33164
upperback 11.0233 0.320635 -1.36382
thorax 0.155029 -0.68009 -2.8431
lowerneck -20.2381 -1.21072 2.86416
upperneck 1.27598 -2.86039 0.268335
head 3.51145 -1.6043 -0.628079
rclavicle 1.18277e-014 -2.34566e-014
rhumerus 83.8396 -3.59036 -76.41
rradius 7.05233
rwrist 49.5561
rhand -12.4109 8.65038
rfingers 7.12502
rthumb 13.661 -20.8813
lclavicle 1.18277e-014 -2.34566e-014
lhumerus 85.7062 -6.93446 48.7274
lradius 13.4079
lwrist -35.2307
lhand -22.0968 -11.3894
lfingers 7.12502
lthumb 4.3153 18.5466
rfemur -56.0783 -14.1993 11.7292
rtibia 111.448
rfoot -31.2585 29.397
rtoes -23.2909
lfemur -55.8546 10.4811 -14.9156
ltibia 113.714
lfoot -27.9881 -18.7192
ltoes -27.9688
64
root 0.42752 13.0173 3.70633 -183.516 -2.30104 179.396
lowerback 21.8607 1.75726 2.21642
upperback 11.1182 0.258454 -1.33266
thorax -0.0352498 -0.74708 -2.73387
lowerneck -20.2027 -1.1922 2.81919
upperneck 0.891192 -2.85183 0.255656
head 3.38714 -1.62093 -0.621346
rclavicle 4.57205e-015 -3.37934e-015
rhumerus 83.9301 -3.68766 -76.3788
rradius 6.96635
rwrist 49.8678
rhand -12.4062 8.749
rfingers 7.12502
rthumb 13.6655 -20.7824
lclavicle 4.57205e-015 -3.37934e-015
lhumerus 85.6551 -6.76528 48.4346
lradius 13.4106
lwrist -34.861
lhand -22.1902 -11.2228
lfingers 7.12502
lthumb 4.22507 18.715
rfemur -57.1398 -15.1498 10.9883
rtibia 113.539
rfoot -30.4549 31.6276
rtoes -21.5257
lfemur -56.8487 11.2829 -14.6874
ltibia 115.733
lfoot -28.0427 -19.7488
ltoes -27.8874
65
root 0.430579 12.7872 3.7141 -183.809 -2.33304 179.292
lowerback 22.4236 1.78569 2.12688
upperback 11.201 0.220575 -1.31474
thorax -0.225242 -0.798882 -2.65746
lowerneck -20.2689 -1.1975 2.78113
upperneck 0.6196 -2.87665 0.22876
head 3.31214 -1.65121 -0.624786
rclavicle 6.95746e-016 -1.05356e-014
rhumerus 83.9093 -3.82958 -76.3452
rradius 7.02969
rwrist 50.1096
rhand -12.4932 8.8156
rfingers 7.12502
rthumb 13.5817 -20.7214
lclavicle 6.95746e-016 -1.05356e-014
lhumerus 85.5843 -6.64014 48.2137
lradius 13.4551
lwrist -34.5894
lhand -22.064 -11.0249
lfingers 7.12502
lthumb 4.34701 18.9105
rfemur -58.1674 -16.1826 10.2176
rtibia 115.576
rfoot -29.099 34.1198
rtoes -18.5212
lfemur -57.8181 12.1705 -14.4505
ltibia 117.715
lfoot -28.0816 -20.7759
ltoes -27.7818
66
root 0.433681 12.5575 3.72011 -184.125 -2.37665 179.191
lowerback 22.989 1.80724 2.02514
upperback 11.2914 0.167018 -1.27951
thorax -0.407442 -0.860726 -2.55134
lowerneck -20.5266 -1.18786 2.72361
upperneck 0.542942 -2.87831 0.184426
head 3.32573 -1.6653 -0.632235
rclavicle 6.65929e-015 2.08724e-014
rhumerus 83.9274 -3.92915 -76.2988
rradius 7.11688
rwrist 50.3188
rhand -12.5626 8.83426
rfingers 7.12502
rthumb 13.5148 -20.7072
lclavicle 6.65929e-015 2.08724e-014
lhumerus 85.4254 -6.50246 48.3269
lradius 13.5384
lwrist -34.73
lhand -21.8166 -10.8233
lfingers 7.12502
lthumb 4.5859 19.1071
rfemur -59.1359 -17.3219 9.44472
rtibia 117.57
rfoot -27.6922 36.4407
rtoes -15.6819
lfemur -58.741 13.1475 -14.1931
ltibia 119.663
lfoot -28.1758 -21.7658
ltoes -27.8221
67
root 0.437602 12.3268 3.7248 -184.507 -2.42911 179.077
lowerback 23.6018 1.84204 1.91928
upperback 11.4065 0.1169 -1.24212
thorax -0.58311 -0.925695 -2.4407
lowerneck -20.9456 -1.18566 2.65314
upperneck 0.608877 -2.88941 0.139267
head 3.40681 -1.6805 -0.641638
rclavicle 2.78299e-014 -1.19271e-015
rhumerus 83.8333 -4.01933 -76.2441
rradius 7.32299
rwrist 50.3982
rhand -12.6219 8.87121
rfingers 7.12502
rthumb 13.4577 -20.674
lclavicle 2.78299e-014 -1.19271e-015
lhumerus 85.2579 -6.36262 48.5479
lradius 13.6445
lwrist -34.9988
lhand -21.5123 -10.6502
lfingers 7.12502
lthumb 4.87968 19.2736
rfemur -60.0021 -18.6091 8.6195
rtibia 119.545
rfoot -26.2655 38.6227
rtoes -12.9207
lfemur -59.5717 14.2204 -13.9163
ltibia 121.588
lfoot -28.3172 -22.7294
ltoes -28.0041
68
root 0.441241 12.095 3.727 -184.986 -2.47308 178.983
lowerback 24.2942 1.87891 1.87388
upperback 11.5349 0.0689256 -1.22529
thorax -0.777643 -0.991559 -2.38627
lowerneck -21.4166 -1.19203 2.62685
upperneck 0.73036 -2.92159 0.080608
head 3.51138 -1.70517 -0.665168
rclavicle 1.95803e-014 -3.8763e-015
rhumerus 83.7751 -4.13646 -76.2218
rradius 7.41666
rwrist 50.4791
rhand -12.7537 8.8668
rfingers 7.12502
rthumb 13.3306 -20.6868
lclavicle 1.95803e-014 -3.8763e-015
lhumerus 85.0597 -6.28304 48.8602
lradius 13.7682
lwrist -35.3264
lhand -21.2161 -10.4456
lfingers 7.12502
lthumb 5.16573 19.4714
rfemur -60.7157 -20.0441 7.75773
rtibia 121.492
rfoot -24.95 40.6524
rtoes -10.6902
lfemur -60.2361 15.4542 -13.5518
ltibia 123.494
lfoot -28.5517 -23.7115
ltoes -28.3086
69
root 0.444627 11.8631 3.72848 -185.415 -2.51811 178.871
lowerback 24.9068 1.92436 1.77401
upperback 11.6799 0.01868 -1.17249
thorax -0.914542 -1.06138 -2.26077
lowerneck -21.9483 -1.20063 2.53733
upperneck 0.841998 -2.94431 -0.0121868
head 3.62174 -1.7301 -0.689537
rclavicle 9.0447e-015 1.03368e-014
rhumerus 83.8186 -4.21992 -76.1493
rradius 7.45101
rwrist 50.4321
rhand -12.8836 8.87407
rfingers 7.12502
rthumb 13.2054 -20.6877
lclavicle 9.0447e-015 1.03368e-014
lhumerus 84.8544 -6.12773 49.1707
lradius 13.9165
lwrist -35.5587
lhand -20.9905 -10.2407
lfingers 7.12502
lthumb 5.38355 19.6709
rfemur -61.4782 -21.7121 6.90655
rtibia 123.439
rfoot -24.2479 42.2741
rtoes -9.82552
lfemur -60.9758 16.8668 -13.2004
ltibia 125.389
lfoot -28.8345 -24.6681
ltoes -28.7081
70
root 0.44794 11.6351 3.72875 -185.69 -2.58265 178.775
lowerback 25.3747 1.95225 1.71947
upperback 11.775 -0.0198782 -1.14554
thorax -1.034 -1.11157 -2.19078
lowerneck -22.3785 -1.20697 2.52236
upperneck 0.836687 -2.9824 -0.129524
head 3.6791 -1.76801 -0.732893
rclavicle -1.99282e-014 2.18663e-014
rhumerus 83.8411 -4.33054 -76.0996
rradius 7.46711
rwrist 50.355
rhand -13 8.8898
rfingers 7.12502
rthumb 13.0932 -20.6792
lclavicle -1.99282e-014 2.18663e-014
lhumerus 84.7045 -6.03206 49.463
lradius 14.0175
lwrist -35.7545
lhand -20.8706 -10.0336
lfingers 7.12502
lthumb 5.49932 19.875
rfemur -62.4392 -23.5994 6.18018
rtibia 125.374
rfoot -24.2689 43.4893
rtoes -10.237
lfemur -61.8919 18.4127 -12.8717
ltibia 127.256
lfoot -29.0684 -25.6295
ltoes -29.0602
71
root 0.451841 11.4123 3.7272 -185.86 -2.62539 178.678
lowerback 25.7531 1.98429 1.64647
upperback 11.8224 -0.0356428 -1.10726
thorax -1.16261 -1.14284 -2.10278
lowerneck -22.7881 -1.22579 2.44083
upperneck 0.817521 -3.02076 -0.218726
head 3.73019 -1.80551 -0.756888
rclavicle -1.86858e-014 2.98177e-015
rhumerus 83.8321 -4.42386 -76.021
rradius 7.48915
rwrist 50.2471
rhand -13.1245 8.85822
rfingers 7.12502
rthumb 12.9732 -20.7184
lclavicle -1.86858e-014 2.98177e-015
lhumerus 84.5548 -5.94327 49.5956
lradius 14.0981
lwrist -35.6905
lhand -20.8797 -9.78529
lfingers 7.12502
lthumb 5.4905 20.1236
rfemur -63.5136 -25.6742 5.54279
rtibia 127.291
rfoot -25.0954 44.3168
rtoes -12.0883
lfemur -62.8918 20.0971 -12.5614
ltibia 129.076
lfoot -29.3846 -26.5312
ltoes -29.5626
72
root 0.454502 11.1914 3.72489 -186.079 -2.68838 178.598
lowerback 26.1349 2.00041 1.59968
upperback 11.9229 -0.0852989 -1.06481
thorax -1.23331 -1.1966 -2.01702
lowerneck -23.2428 -1.20757 2.41221
upperneck 0.751447 -3.03036 -0.363268
head 3.77135 -1.83673 -0.804472
rclavicle 2.88238e-015 1.03368e-014
rhumerus 83.9279 -4.47092 -75.9622
rradius 7.47096
rwrist 50.0053
rhand -13.2086 8.83895
rfingers 7.12502
rthumb 12.8921 -20.7428
lclavicle 2.88238e-015 1.03368e-014
lhumerus 84.43 -5.77908 49.8725
lradius 14.1427
lwrist -35.7973
lhand -20.8883 -9.61861
lfingers 7.12502
lthumb 5.48215 20.2905
rfemur -64.4439 -27.9598 4.84897
rtibia 129.156
rfoot -26.1756 45.1445
rtoes -14.1157
lfemur -63.8018 21.8346 -12.2098
ltibia 130.874
lfoot -29.6256 -27.4642
ltoes -29.7511
